<svg xmlns="http://www.w3.org/2000/svg" width="1597" height="535" viewBox="0 0 1597 535"><rect width="100%" height="100%" fill="#111827"/><text x="30" y="28" fill="white" font-family="Segoe UI, sans-serif" font-size="18">Japanese JIS Full Keyboard Heatmap</text><rect x="30.0" y="42.0" width="55.0" height="55.0" rx="7" fill="#e7e7e7" stroke="#374151"/><text x="57.5" y="72.5" text-anchor="middle" fill="#111827" font-family="Segoe UI, sans-serif" font-size="11">Esc</text><text x="57.5" y="91.0" text-anchor="middle" fill="#374151" font-family="Consolas, monospace" font-size="9">0</text><rect x="146.0" y="42.0" width="55.0" height="55.0" rx="7" fill="#e7e7e7" stroke="#374151"/><text x="173.5" y="72.5" text-anchor="middle" fill="#111827" font-family="Segoe UI, sans-serif" font-size="11">F1</text><text x="173.5" y="91.0" text-anchor="middle" fill="#374151" font-family="Consolas, monospace" font-size="9">0</text><rect x="204.0" y="42.0" width="55.0" height="55.0" rx="7" fill="#e7e7e7" stroke="#374151"/><text x="231.5" y="72.5" text-anchor="middle" fill="#111827" font-family="Segoe UI, sans-serif" font-size="11">F2</text><text x="231.5" y="91.0" text-anchor="middle" fill="#374151" font-family="Consolas, monospace" font-size="9">0</text><rect x="262.0" y="42.0" width="55.0" height="55.0" rx="7" fill="#e7e7e7" stroke="#374151"/><text x="289.5" y="72.5" text-anchor="middle" fill="#111827" font-family="Segoe UI, sans-serif" font-size="11">F3</text><text x="289.5" y="91.0" text-anchor="middle" fill="#374151" font-family="Consolas, monospace" font-size="9">0</text><rect x="320.0" y="42.0" width="55.0" height="55.0" rx="7" fill="#e7e7e7" stroke="#374151"/><text x="347.5" y="72.5" text-anchor="middle" fill="#111827" font-family="Segoe UI, sans-serif" font-size="11">F4</text><text x="347.5" y="91.0" text-anchor="middle" fill="#374151" font-family="Consolas, monospace" font-size="9">0</text><rect x="407.0" y="42.0" width="55.0" height="55.0" rx="7" fill="#e7e7e7" stroke="#374151"/><text x="434.5" y="72.5" text-anchor="middle" fill="#111827" font-family="Segoe UI, sans-serif" font-size="11">F5</text><text x="434.5" y="91.0" text-anchor="middle" fill="#374151" font-family="Consolas, monospace" font-size="9">0</text><rect x="465.0" y="42.0" width="55.0" height="55.0" rx="7" fill="#e7e7e7" stroke="#374151"/><text x="492.5" y="72.5" text-anchor="middle" fill="#111827" font-family="Segoe UI, sans-serif" font-size="11">F6</text><text x="492.5" y="91.0" text-anchor="middle" fill="#374151" font-family="Consolas, monospace" font-size="9">0</text><rect x="523.0" y="42.0" width="55.0" height="55.0" rx="7" fill="#e7e7e7" stroke="#374151"/><text x="550.5" y="72.5" text-anchor="middle" fill="#111827" font-family="Segoe UI, sans-serif" font-size="11">F7</text><text x="550.5" y="91.0" text-anchor="middle" fill="#374151" font-family="Consolas, monospace" font-size="9">0</text><rect x="581.0" y="42.0" width="55.0" height="55.0" rx="7" fill="#e7e7e7" stroke="#374151"/><text x="608.5" y="72.5" text-anchor="middle" fill="#111827" font-family="Segoe UI, sans-serif" font-size="11">F8</text><text x="608.5" y="91.0" text-anchor="middle" fill="#374151" font-family="Consolas, monospace" font-size="9">0</text><rect x="668.0" y="42.0" width="55.0" height="55.0" rx="7" fill="#e7e7e7" stroke="#374151"/><text x="695.5" y="72.5" text-anchor="middle" fill="#111827" font-family="Segoe UI, sans-serif" font-size="11">F9</text><text x="695.5" y="91.0" text-anchor="middle" fill="#374151" font-family="Consolas, monospace" font-size="9">0</text><rect x="726.0" y="42.0" width="55.0" height="55.0" rx="7" fill="#e7e7e7" stroke="#374151"/><text x="753.5" y="72.5" text-anchor="middle" fill="#111827" font-family="Segoe UI, sans-serif" font-size="11">F10</text><text x="753.5" y="91.0" text-anchor="middle" fill="#374151" font-family="Consolas, monospace" font-size="9">0</text><rect x="784.0" y="42.0" width="55.0" height="55.0" rx="7" fill="#e7e7e7" stroke="#374151"/><text x="811.5" y="72.5" text-anchor="middle" fill="#111827" font-family="Segoe UI, sans-serif" font-size="11">F11</text><text x="811.5" y="91.0" text-anchor="middle" fill="#374151" font-family="Consolas, monospace" font-size="9">0</text><rect x="842.0" y="42.0" width="55.0" height="55.0" rx="7" fill="#e7e7e7" stroke="#374151"/><text x="869.5" y="72.5" text-anchor="middle" fill="#111827" font-family="Segoe UI, sans-serif" font-size="11">F12</text><text x="869.5" y="91.0" text-anchor="middle" fill="#374151" font-family="Consolas, monospace" font-size="9">0</text><rect x="30.0" y="129.0" width="84.0" height="55.0" rx="7" fill="#e7e7e7" stroke="#374151"/><text x="72.0" y="159.5" text-anchor="middle" fill="#111827" font-family="Segoe UI, sans-serif" font-size="11">半角/全角</text><text x="72.0" y="178.0" text-anchor="middle" fill="#374151" font-family="Consolas, monospace" font-size="9">0</text><rect x="117.0" y="129.0" width="55.0" height="55.0" rx="7" fill="#e7e7e7" stroke="#374151"/><text x="144.5" y="159.5" text-anchor="middle" fill="#111827" font-family="Segoe UI, sans-serif" font-size="11">1</text><text x="144.5" y="178.0" text-anchor="middle" fill="#374151" font-family="Consolas, monospace" font-size="9">0</text><rect x="175.0" y="129.0" width="55.0" height="55.0" rx="7" fill="#e7e7e7" stroke="#374151"/><text x="202.5" y="159.5" text-anchor="middle" fill="#111827" font-family="Segoe UI, sans-serif" font-size="11">2</text><text x="202.5" y="178.0" text-anchor="middle" fill="#374151" font-family="Consolas, monospace" font-size="9">0</text><rect x="233.0" y="129.0" width="55.0" height="55.0" rx="7" fill="#ffabab" stroke="#374151"/><text x="260.5" y="159.5" text-anchor="middle" fill="#111827" font-family="Segoe UI, sans-serif" font-size="11">3</text><text x="260.5" y="178.0" text-anchor="middle" fill="#374151" font-family="Consolas, monospace" font-size="9">1</text><rect x="291.0" y="129.0" width="55.0" height="55.0" rx="7" fill="#e7e7e7" stroke="#374151"/><text x="318.5" y="159.5" text-anchor="middle" fill="#111827" font-family="Segoe UI, sans-serif" font-size="11">4</text><text x="318.5" y="178.0" text-anchor="middle" fill="#374151" font-family="Consolas, monospace" font-size="9">0</text><rect x="349.0" y="129.0" width="55.0" height="55.0" rx="7" fill="#e7e7e7" stroke="#374151"/><text x="376.5" y="159.5" text-anchor="middle" fill="#111827" font-family="Segoe UI, sans-serif" font-size="11">5</text><text x="376.5" y="178.0" text-anchor="middle" fill="#374151" font-family="Consolas, monospace" font-size="9">0</text><rect x="407.0" y="129.0" width="55.0" height="55.0" rx="7" fill="#e7e7e7" stroke="#374151"/><text x="434.5" y="159.5" text-anchor="middle" fill="#111827" font-family="Segoe UI, sans-serif" font-size="11">6</text><text x="434.5" y="178.0" text-anchor="middle" fill="#374151" font-family="Consolas, monospace" font-size="9">0</text><rect x="465.0" y="129.0" width="55.0" height="55.0" rx="7" fill="#e7e7e7" stroke="#374151"/><text x="492.5" y="159.5" text-anchor="middle" fill="#111827" font-family="Segoe UI, sans-serif" font-size="11">7</text><text x="492.5" y="178.0" text-anchor="middle" fill="#374151" font-family="Consolas, monospace" font-size="9">0</text><rect x="523.0" y="129.0" width="55.0" height="55.0" rx="7" fill="#e7e7e7" stroke="#374151"/><text x="550.5" y="159.5" text-anchor="middle" fill="#111827" font-family="Segoe UI, sans-serif" font-size="11">8</text><text x="550.5" y="178.0" text-anchor="middle" fill="#374151" font-family="Consolas, monospace" font-size="9">0</text><rect x="581.0" y="129.0" width="55.0" height="55.0" rx="7" fill="#e7e7e7" stroke="#374151"/><text x="608.5" y="159.5" text-anchor="middle" fill="#111827" font-family="Segoe UI, sans-serif" font-size="11">9</text><text x="608.5" y="178.0" text-anchor="middle" fill="#374151" font-family="Consolas, monospace" font-size="9">0</text><rect x="639.0" y="129.0" width="55.0" height="55.0" rx="7" fill="#e7e7e7" stroke="#374151"/><text x="666.5" y="159.5" text-anchor="middle" fill="#111827" font-family="Segoe UI, sans-serif" font-size="11">0</text><text x="666.5" y="178.0" text-anchor="middle" fill="#374151" font-family="Consolas, monospace" font-size="9">0</text><rect x="697.0" y="129.0" width="55.0" height="55.0" rx="7" fill="#e7e7e7" stroke="#374151"/><text x="724.5" y="159.5" text-anchor="middle" fill="#111827" font-family="Segoe UI, sans-serif" font-size="11">-</text><text x="724.5" y="178.0" text-anchor="middle" fill="#374151" font-family="Consolas, monospace" font-size="9">0</text><rect x="755.0" y="129.0" width="55.0" height="55.0" rx="7" fill="#e7e7e7" stroke="#374151"/><text x="782.5" y="159.5" text-anchor="middle" fill="#111827" font-family="Segoe UI, sans-serif" font-size="11">^</text><text x="782.5" y="178.0" text-anchor="middle" fill="#374151" font-family="Consolas, monospace" font-size="9">0</text><rect x="813.0" y="129.0" width="55.0" height="55.0" rx="7" fill="#e7e7e7" stroke="#374151"/><text x="840.5" y="159.5" text-anchor="middle" fill="#111827" font-family="Segoe UI, sans-serif" font-size="11">\</text><text x="840.5" y="178.0" text-anchor="middle" fill="#374151" font-family="Consolas, monospace" font-size="9">0</text><rect x="871.0" y="129.0" width="84.0" height="55.0" rx="7" fill="#ffabab" stroke="#374151"/><text x="913.0" y="159.5" text-anchor="middle" fill="#111827" font-family="Segoe UI, sans-serif" font-size="11">Backspace</text><text x="913.0" y="178.0" text-anchor="middle" fill="#374151" font-family="Consolas, monospace" font-size="9">1</text><rect x="88.0" y="187.0" width="55.0" height="55.0" rx="7" fill="#e7e7e7" stroke="#374151"/><text x="115.5" y="217.5" text-anchor="middle" fill="#111827" font-family="Segoe UI, sans-serif" font-size="11">Q</text><text x="115.5" y="236.0" text-anchor="middle" fill="#374151" font-family="Consolas, monospace" font-size="9">0</text><rect x="146.0" y="187.0" width="55.0" height="55.0" rx="7" fill="#e7e7e7" stroke="#374151"/><text x="173.5" y="217.5" text-anchor="middle" fill="#111827" font-family="Segoe UI, sans-serif" font-size="11">W</text><text x="173.5" y="236.0" text-anchor="middle" fill="#374151" font-family="Consolas, monospace" font-size="9">0</text><rect x="204.0" y="187.0" width="55.0" height="55.0" rx="7" fill="#ff6262" stroke="#374151"/><text x="231.5" y="217.5" text-anchor="middle" fill="#111827" font-family="Segoe UI, sans-serif" font-size="11">E</text><text x="231.5" y="236.0" text-anchor="middle" fill="#374151" font-family="Consolas, monospace" font-size="9">3</text><rect x="262.0" y="187.0" width="55.0" height="55.0" rx="7" fill="#ffabab" stroke="#374151"/><text x="289.5" y="217.5" text-anchor="middle" fill="#111827" font-family="Segoe UI, sans-serif" font-size="11">R</text><text x="289.5" y="236.0" text-anchor="middle" fill="#374151" font-family="Consolas, monospace" font-size="9">1</text><rect x="320.0" y="187.0" width="55.0" height="55.0" rx="7" fill="#ff4b4b" stroke="#374151"/><text x="347.5" y="217.5" text-anchor="middle" fill="#111827" font-family="Segoe UI, sans-serif" font-size="11">T</text><text x="347.5" y="236.0" text-anchor="middle" fill="#374151" font-family="Consolas, monospace" font-size="9">4</text><rect x="378.0" y="187.0" width="55.0" height="55.0" rx="7" fill="#e7e7e7" stroke="#374151"/><text x="405.5" y="217.5" text-anchor="middle" fill="#111827" font-family="Segoe UI, sans-serif" font-size="11">Y</text><text x="405.5" y="236.0" text-anchor="middle" fill="#374151" font-family="Consolas, monospace" font-size="9">0</text><rect x="436.0" y="187.0" width="55.0" height="55.0" rx="7" fill="#ff8181" stroke="#374151"/><text x="463.5" y="217.5" text-anchor="middle" fill="#111827" font-family="Segoe UI, sans-serif" font-size="11">U</text><text x="463.5" y="236.0" text-anchor="middle" fill="#374151" font-family="Consolas, monospace" font-size="9">2</text><rect x="494.0" y="187.0" width="55.0" height="55.0" rx="7" fill="#ff3838" stroke="#374151"/><text x="521.5" y="217.5" text-anchor="middle" fill="#111827" font-family="Segoe UI, sans-serif" font-size="11">I</text><text x="521.5" y="236.0" text-anchor="middle" fill="#374151" font-family="Consolas, monospace" font-size="9">5</text><rect x="552.0" y="187.0" width="55.0" height="55.0" rx="7" fill="#e7e7e7" stroke="#374151"/><text x="579.5" y="217.5" text-anchor="middle" fill="#111827" font-family="Segoe UI, sans-serif" font-size="11">O</text><text x="579.5" y="236.0" text-anchor="middle" fill="#374151" font-family="Consolas, monospace" font-size="9">0</text><rect x="610.0" y="187.0" width="55.0" height="55.0" rx="7" fill="#e7e7e7" stroke="#374151"/><text x="637.5" y="217.5" text-anchor="middle" fill="#111827" font-family="Segoe UI, sans-serif" font-size="11">P</text><text x="637.5" y="236.0" text-anchor="middle" fill="#374151" font-family="Consolas, monospace" font-size="9">0</text><rect x="668.0" y="187.0" width="55.0" height="55.0" rx="7" fill="#e7e7e7" stroke="#374151"/><text x="695.5" y="217.5" text-anchor="middle" fill="#111827" font-family="Segoe UI, sans-serif" font-size="11">@</text><text x="695.5" y="236.0" text-anchor="middle" fill="#374151" font-family="Consolas, monospace" font-size="9">0</text><rect x="726.0" y="187.0" width="55.0" height="55.0" rx="7" fill="#e7e7e7" stroke="#374151"/><text x="753.5" y="217.5" text-anchor="middle" fill="#111827" font-family="Segoe UI, sans-serif" font-size="11">[</text><text x="753.5" y="236.0" text-anchor="middle" fill="#374151" font-family="Consolas, monospace" font-size="9">0</text><rect x="784.0" y="187.0" width="171.0" height="113.0" rx="7" fill="#ff2828" stroke="#374151"/><text x="869.5" y="246.5" text-anchor="middle" fill="#111827" font-family="Segoe UI, sans-serif" font-size="11">Enter</text><text x="869.5" y="294.0" text-anchor="middle" fill="#374151" font-family="Consolas, monospace" font-size="9">6</text><rect x="117.0" y="245.0" width="55.0" height="55.0" rx="7" fill="#ff4b4b" stroke="#374151"/><text x="144.5" y="275.5" text-anchor="middle" fill="#111827" font-family="Segoe UI, sans-serif" font-size="11">A</text><text x="144.5" y="294.0" text-anchor="middle" fill="#374151" font-family="Consolas, monospace" font-size="9">4</text><rect x="175.0" y="245.0" width="55.0" height="55.0" rx="7" fill="#ff3838" stroke="#374151"/><text x="202.5" y="275.5" text-anchor="middle" fill="#111827" font-family="Segoe UI, sans-serif" font-size="11">S</text><text x="202.5" y="294.0" text-anchor="middle" fill="#374151" font-family="Consolas, monospace" font-size="9">5</text><rect x="233.0" y="245.0" width="55.0" height="55.0" rx="7" fill="#e7e7e7" stroke="#374151"/><text x="260.5" y="275.5" text-anchor="middle" fill="#111827" font-family="Segoe UI, sans-serif" font-size="11">D</text><text x="260.5" y="294.0" text-anchor="middle" fill="#374151" font-family="Consolas, monospace" font-size="9">0</text><rect x="291.0" y="245.0" width="55.0" height="55.0" rx="7" fill="#e7e7e7" stroke="#374151"/><text x="318.5" y="275.5" text-anchor="middle" fill="#111827" font-family="Segoe UI, sans-serif" font-size="11">F</text><text x="318.5" y="294.0" text-anchor="middle" fill="#374151" font-family="Consolas, monospace" font-size="9">0</text><rect x="349.0" y="245.0" width="55.0" height="55.0" rx="7" fill="#ff6262" stroke="#374151"/><text x="376.5" y="275.5" text-anchor="middle" fill="#111827" font-family="Segoe UI, sans-serif" font-size="11">G</text><text x="376.5" y="294.0" text-anchor="middle" fill="#374151" font-family="Consolas, monospace" font-size="9">3</text><rect x="407.0" y="245.0" width="55.0" height="55.0" rx="7" fill="#e7e7e7" stroke="#374151"/><text x="434.5" y="275.5" text-anchor="middle" fill="#111827" font-family="Segoe UI, sans-serif" font-size="11">H</text><text x="434.5" y="294.0" text-anchor="middle" fill="#374151" font-family="Consolas, monospace" font-size="9">0</text><rect x="465.0" y="245.0" width="55.0" height="55.0" rx="7" fill="#e7e7e7" stroke="#374151"/><text x="492.5" y="275.5" text-anchor="middle" fill="#111827" font-family="Segoe UI, sans-serif" font-size="11">J</text><text x="492.5" y="294.0" text-anchor="middle" fill="#374151" font-family="Consolas, monospace" font-size="9">0</text><rect x="523.0" y="245.0" width="55.0" height="55.0" rx="7" fill="#ffabab" stroke="#374151"/><text x="550.5" y="275.5" text-anchor="middle" fill="#111827" font-family="Segoe UI, sans-serif" font-size="11">K</text><text x="550.5" y="294.0" text-anchor="middle" fill="#374151" font-family="Consolas, monospace" font-size="9">1</text><rect x="581.0" y="245.0" width="55.0" height="55.0" rx="7" fill="#e7e7e7" stroke="#374151"/><text x="608.5" y="275.5" text-anchor="middle" fill="#111827" font-family="Segoe UI, sans-serif" font-size="11">L</text><text x="608.5" y="294.0" text-anchor="middle" fill="#374151" font-family="Consolas, monospace" font-size="9">0</text><rect x="639.0" y="245.0" width="55.0" height="55.0" rx="7" fill="#e7e7e7" stroke="#374151"/><text x="666.5" y="275.5" text-anchor="middle" fill="#111827" font-family="Segoe UI, sans-serif" font-size="11">;</text><text x="666.5" y="294.0" text-anchor="middle" fill="#374151" font-family="Consolas, monospace" font-size="9">0</text><rect x="697.0" y="245.0" width="55.0" height="55.0" rx="7" fill="#e7e7e7" stroke="#374151"/><text x="724.5" y="275.5" text-anchor="middle" fill="#111827" font-family="Segoe UI, sans-serif" font-size="11">:</text><text x="724.5" y="294.0" text-anchor="middle" fill="#374151" font-family="Consolas, monospace" font-size="9">0</text><rect x="30.0" y="303.0" width="142.0" height="55.0" rx="7" fill="#e7e7e7" stroke="#374151"/><text x="101.0" y="333.5" text-anchor="middle" fill="#111827" font-family="Segoe UI, sans-serif" font-size="11">Shift</text><text x="101.0" y="352.0" text-anchor="middle" fill="#374151" font-family="Consolas, monospace" font-size="9">0</text><rect x="175.0" y="303.0" width="55.0" height="55.0" rx="7" fill="#e7e7e7" stroke="#374151"/><text x="202.5" y="333.5" text-anchor="middle" fill="#111827" font-family="Segoe UI, sans-serif" font-size="11">Z</text><text x="202.5" y="352.0" text-anchor="middle" fill="#374151" font-family="Consolas, monospace" font-size="9">0</text><rect x="233.0" y="303.0" width="55.0" height="55.0" rx="7" fill="#e7e7e7" stroke="#374151"/><text x="260.5" y="333.5" text-anchor="middle" fill="#111827" font-family="Segoe UI, sans-serif" font-size="11">X</text><text x="260.5" y="352.0" text-anchor="middle" fill="#374151" font-family="Consolas, monospace" font-size="9">0</text><rect x="291.0" y="303.0" width="55.0" height="55.0" rx="7" fill="#e7e7e7" stroke="#374151"/><text x="318.5" y="333.5" text-anchor="middle" fill="#111827" font-family="Segoe UI, sans-serif" font-size="11">C</text><text x="318.5" y="352.0" text-anchor="middle" fill="#374151" font-family="Consolas, monospace" font-size="9">0</text><rect x="349.0" y="303.0" width="55.0" height="55.0" rx="7" fill="#e7e7e7" stroke="#374151"/><text x="376.5" y="333.5" text-anchor="middle" fill="#111827" font-family="Segoe UI, sans-serif" font-size="11">V</text><text x="376.5" y="352.0" text-anchor="middle" fill="#374151" font-family="Consolas, monospace" font-size="9">0</text><rect x="407.0" y="303.0" width="55.0" height="55.0" rx="7" fill="#ffabab" stroke="#374151"/><text x="434.5" y="333.5" text-anchor="middle" fill="#111827" font-family="Segoe UI, sans-serif" font-size="11">B</text><text x="434.5" y="352.0" text-anchor="middle" fill="#374151" font-family="Consolas, monospace" font-size="9">1</text><rect x="465.0" y="303.0" width="55.0" height="55.0" rx="7" fill="#e7e7e7" stroke="#374151"/><text x="492.5" y="333.5" text-anchor="middle" fill="#111827" font-family="Segoe UI, sans-serif" font-size="11">N</text><text x="492.5" y="352.0" text-anchor="middle" fill="#374151" font-family="Consolas, monospace" font-size="9">0</text><rect x="523.0" y="303.0" width="55.0" height="55.0" rx="7" fill="#ff8181" stroke="#374151"/><text x="550.5" y="333.5" text-anchor="middle" fill="#111827" font-family="Segoe UI, sans-serif" font-size="11">M</text><text x="550.5" y="352.0" text-anchor="middle" fill="#374151" font-family="Consolas, monospace" font-size="9">2</text><rect x="581.0" y="303.0" width="55.0" height="55.0" rx="7" fill="#e7e7e7" stroke="#374151"/><text x="608.5" y="333.5" text-anchor="middle" fill="#111827" font-family="Segoe UI, sans-serif" font-size="11">,</text><text x="608.5" y="352.0" text-anchor="middle" fill="#374151" font-family="Consolas, monospace" font-size="9">0</text><rect x="639.0" y="303.0" width="55.0" height="55.0" rx="7" fill="#ffabab" stroke="#374151"/><text x="666.5" y="333.5" text-anchor="middle" fill="#111827" font-family="Segoe UI, sans-serif" font-size="11">.</text><text x="666.5" y="352.0" text-anchor="middle" fill="#374151" font-family="Consolas, monospace" font-size="9">1</text><rect x="697.0" y="303.0" width="55.0" height="55.0" rx="7" fill="#e7e7e7" stroke="#374151"/><text x="724.5" y="333.5" text-anchor="middle" fill="#111827" font-family="Segoe UI, sans-serif" font-size="11">/</text><text x="724.5" y="352.0" text-anchor="middle" fill="#374151" font-family="Consolas, monospace" font-size="9">0</text><rect x="755.0" y="303.0" width="55.0" height="55.0" rx="7" fill="#e7e7e7" stroke="#374151"/><text x="782.5" y="333.5" text-anchor="middle" fill="#111827" font-family="Segoe UI, sans-serif" font-size="11">\_</text><text x="782.5" y="352.0" text-anchor="middle" fill="#374151" font-family="Consolas, monospace" font-size="9">0</text><rect x="813.0" y="303.0" width="142.0" height="55.0" rx="7" fill="#e7e7e7" stroke="#374151"/><text x="884.0" y="333.5" text-anchor="middle" fill="#111827" font-family="Segoe UI, sans-serif" font-size="11">Shift</text><text x="884.0" y="352.0" text-anchor="middle" fill="#374151" font-family="Consolas, monospace" font-size="9">0</text><rect x="30.0" y="361.0" width="84.0" height="55.0" rx="7" fill="#e7e7e7" stroke="#374151"/><text x="72.0" y="391.5" text-anchor="middle" fill="#111827" font-family="Segoe UI, sans-serif" font-size="11">Ctrl</text><text x="72.0" y="410.0" text-anchor="middle" fill="#374151" font-family="Consolas, monospace" font-size="9">0</text><rect x="117.0" y="361.0" width="84.0" height="55.0" rx="7" fill="#e7e7e7" stroke="#374151"/><text x="159.0" y="391.5" text-anchor="middle" fill="#111827" font-family="Segoe UI, sans-serif" font-size="11">Win</text><text x="159.0" y="410.0" text-anchor="middle" fill="#374151" font-family="Consolas, monospace" font-size="9">0</text><rect x="204.0" y="361.0" width="84.0" height="55.0" rx="7" fill="#e7e7e7" stroke="#374151"/><text x="246.0" y="391.5" text-anchor="middle" fill="#111827" font-family="Segoe UI, sans-serif" font-size="11">Alt</text><text x="246.0" y="410.0" text-anchor="middle" fill="#374151" font-family="Consolas, monospace" font-size="9">0</text><rect x="291.0" y="361.0" width="84.0" height="55.0" rx="7" fill="#ff8181" stroke="#374151"/><text x="333.0" y="391.5" text-anchor="middle" fill="#111827" font-family="Segoe UI, sans-serif" font-size="11">無変換</text><text x="333.0" y="410.0" text-anchor="middle" fill="#374151" font-family="Consolas, monospace" font-size="9">2</text><rect x="378.0" y="361.0" width="287.0" height="55.0" rx="7" fill="#ff8181" stroke="#374151"/><text x="521.5" y="391.5" text-anchor="middle" fill="#111827" font-family="Segoe UI, sans-serif" font-size="11">Space</text><text x="521.5" y="410.0" text-anchor="middle" fill="#374151" font-family="Consolas, monospace" font-size="9">2</text><rect x="668.0" y="361.0" width="84.0" height="55.0" rx="7" fill="#e7e7e7" stroke="#374151"/><text x="710.0" y="391.5" text-anchor="middle" fill="#111827" font-family="Segoe UI, sans-serif" font-size="11">変換</text><text x="710.0" y="410.0" text-anchor="middle" fill="#374151" font-family="Consolas, monospace" font-size="9">0</text><rect x="755.0" y="361.0" width="84.0" height="55.0" rx="7" fill="#ffabab" stroke="#374151"/><text x="797.0" y="391.5" text-anchor="middle" fill="#111827" font-family="Segoe UI, sans-serif" font-size="11">ひらがな</text><text x="797.0" y="410.0" text-anchor="middle" fill="#374151" font-family="Consolas, monospace" font-size="9">1</text><rect x="842.0" y="361.0" width="84.0" height="55.0" rx="7" fill="#e7e7e7" stroke="#374151"/><text x="884.0" y="391.5" text-anchor="middle" fill="#111827" font-family="Segoe UI, sans-serif" font-size="11">Alt</text><text x="884.0" y="410.0" text-anchor="middle" fill="#374151" font-family="Consolas, monospace" font-size="9">0</text><rect x="929.0" y="361.0" width="84.0" height="55.0" rx="7" fill="#e7e7e7" stroke="#374151"/><text x="971.0" y="391.5" text-anchor="middle" fill="#111827" font-family="Segoe UI, sans-serif" font-size="11">Ctrl</text><text x="971.0" y="410.0" text-anchor="middle" fill="#374151" font-family="Consolas, monospace" font-size="9">0</text><rect x="1045.0" y="129.0" width="55.0" height="55.0" rx="7" fill="#e7e7e7" stroke="#374151"/><text x="1072.5" y="159.5" text-anchor="middle" fill="#111827" font-family="Segoe UI, sans-serif" font-size="11">Ins</text><text x="1072.5" y="178.0" text-anchor="middle" fill="#374151" font-family="Consolas, monospace" font-size="9">0</text><rect x="1103.0" y="129.0" width="55.0" height="55.0" rx="7" fill="#e7e7e7" stroke="#374151"/><text x="1130.5" y="159.5" text-anchor="middle" fill="#111827" font-family="Segoe UI, sans-serif" font-size="11">Home</text><text x="1130.5" y="178.0" text-anchor="middle" fill="#374151" font-family="Consolas, monospace" font-size="9">0</text><rect x="1161.0" y="129.0" width="55.0" height="55.0" rx="7" fill="#e7e7e7" stroke="#374151"/><text x="1188.5" y="159.5" text-anchor="middle" fill="#111827" font-family="Segoe UI, sans-serif" font-size="11">PgUp</text><text x="1188.5" y="178.0" text-anchor="middle" fill="#374151" font-family="Consolas, monospace" font-size="9">0</text><rect x="1045.0" y="187.0" width="55.0" height="55.0" rx="7" fill="#ffabab" stroke="#374151"/><text x="1072.5" y="217.5" text-anchor="middle" fill="#111827" font-family="Segoe UI, sans-serif" font-size="11">Del</text><text x="1072.5" y="236.0" text-anchor="middle" fill="#374151" font-family="Consolas, monospace" font-size="9">1</text><rect x="1103.0" y="187.0" width="55.0" height="55.0" rx="7" fill="#e7e7e7" stroke="#374151"/><text x="1130.5" y="217.5" text-anchor="middle" fill="#111827" font-family="Segoe UI, sans-serif" font-size="11">End</text><text x="1130.5" y="236.0" text-anchor="middle" fill="#374151" font-family="Consolas, monospace" font-size="9">0</text><rect x="1161.0" y="187.0" width="55.0" height="55.0" rx="7" fill="#e7e7e7" stroke="#374151"/><text x="1188.5" y="217.5" text-anchor="middle" fill="#111827" font-family="Segoe UI, sans-serif" font-size="11">PgDn</text><text x="1188.5" y="236.0" text-anchor="middle" fill="#374151" font-family="Consolas, monospace" font-size="9">0</text><rect x="1103.0" y="274.0" width="55.0" height="55.0" rx="7" fill="#e7e7e7" stroke="#374151"/><text x="1130.5" y="304.5" text-anchor="middle" fill="#111827" font-family="Segoe UI, sans-serif" font-size="11">Up</text><text x="1130.5" y="323.0" text-anchor="middle" fill="#374151" font-family="Consolas, monospace" font-size="9">0</text><rect x="1045.0" y="332.0" width="55.0" height="55.0" rx="7" fill="#e7e7e7" stroke="#374151"/><text x="1072.5" y="362.5" text-anchor="middle" fill="#111827" font-family="Segoe UI, sans-serif" font-size="11">Left</text><text x="1072.5" y="381.0" text-anchor="middle" fill="#374151" font-family="Consolas, monospace" font-size="9">0</text><rect x="1103.0" y="332.0" width="55.0" height="55.0" rx="7" fill="#e7e7e7" stroke="#374151"/><text x="1130.5" y="362.5" text-anchor="middle" fill="#111827" font-family="Segoe UI, sans-serif" font-size="11">Down</text><text x="1130.5" y="381.0" text-anchor="middle" fill="#374151" font-family="Consolas, monospace" font-size="9">0</text><rect x="1161.0" y="332.0" width="55.0" height="55.0" rx="7" fill="#e7e7e7" stroke="#374151"/><text x="1188.5" y="362.5" text-anchor="middle" fill="#111827" font-family="Segoe UI, sans-serif" font-size="11">Right</text><text x="1188.5" y="381.0" text-anchor="middle" fill="#374151" font-family="Consolas, monospace" font-size="9">0</text><rect x="1277.0" y="129.0" width="55.0" height="55.0" rx="7" fill="#e7e7e7" stroke="#374151"/><text x="1304.5" y="159.5" text-anchor="middle" fill="#111827" font-family="Segoe UI, sans-serif" font-size="11">Num</text><text x="1304.5" y="178.0" text-anchor="middle" fill="#374151" font-family="Consolas, monospace" font-size="9">0</text><rect x="1335.0" y="129.0" width="55.0" height="55.0" rx="7" fill="#e7e7e7" stroke="#374151"/><text x="1362.5" y="159.5" text-anchor="middle" fill="#111827" font-family="Segoe UI, sans-serif" font-size="11">/</text><text x="1362.5" y="178.0" text-anchor="middle" fill="#374151" font-family="Consolas, monospace" font-size="9">0</text><rect x="1393.0" y="129.0" width="55.0" height="55.0" rx="7" fill="#e7e7e7" stroke="#374151"/><text x="1420.5" y="159.5" text-anchor="middle" fill="#111827" font-family="Segoe UI, sans-serif" font-size="11">*</text><text x="1420.5" y="178.0" text-anchor="middle" fill="#374151" font-family="Consolas, monospace" font-size="9">0</text><rect x="1451.0" y="129.0" width="55.0" height="55.0" rx="7" fill="#e7e7e7" stroke="#374151"/><text x="1478.5" y="159.5" text-anchor="middle" fill="#111827" font-family="Segoe UI, sans-serif" font-size="11">-</text><text x="1478.5" y="178.0" text-anchor="middle" fill="#374151" font-family="Consolas, monospace" font-size="9">0</text><rect x="1277.0" y="187.0" width="55.0" height="55.0" rx="7" fill="#e7e7e7" stroke="#374151"/><text x="1304.5" y="217.5" text-anchor="middle" fill="#111827" font-family="Segoe UI, sans-serif" font-size="11">7</text><text x="1304.5" y="236.0" text-anchor="middle" fill="#374151" font-family="Consolas, monospace" font-size="9">0</text><rect x="1335.0" y="187.0" width="55.0" height="55.0" rx="7" fill="#e7e7e7" stroke="#374151"/><text x="1362.5" y="217.5" text-anchor="middle" fill="#111827" font-family="Segoe UI, sans-serif" font-size="11">8</text><text x="1362.5" y="236.0" text-anchor="middle" fill="#374151" font-family="Consolas, monospace" font-size="9">0</text><rect x="1393.0" y="187.0" width="55.0" height="55.0" rx="7" fill="#e7e7e7" stroke="#374151"/><text x="1420.5" y="217.5" text-anchor="middle" fill="#111827" font-family="Segoe UI, sans-serif" font-size="11">9</text><text x="1420.5" y="236.0" text-anchor="middle" fill="#374151" font-family="Consolas, monospace" font-size="9">0</text><rect x="1451.0" y="187.0" width="55.0" height="113.0" rx="7" fill="#e7e7e7" stroke="#374151"/><text x="1478.5" y="246.5" text-anchor="middle" fill="#111827" font-family="Segoe UI, sans-serif" font-size="11">+</text><text x="1478.5" y="294.0" text-anchor="middle" fill="#374151" font-family="Consolas, monospace" font-size="9">0</text><rect x="1277.0" y="245.0" width="55.0" height="55.0" rx="7" fill="#e7e7e7" stroke="#374151"/><text x="1304.5" y="275.5" text-anchor="middle" fill="#111827" font-family="Segoe UI, sans-serif" font-size="11">4</text><text x="1304.5" y="294.0" text-anchor="middle" fill="#374151" font-family="Consolas, monospace" font-size="9">0</text><rect x="1335.0" y="245.0" width="55.0" height="55.0" rx="7" fill="#e7e7e7" stroke="#374151"/><text x="1362.5" y="275.5" text-anchor="middle" fill="#111827" font-family="Segoe UI, sans-serif" font-size="11">5</text><text x="1362.5" y="294.0" text-anchor="middle" fill="#374151" font-family="Consolas, monospace" font-size="9">0</text><rect x="1393.0" y="245.0" width="55.0" height="55.0" rx="7" fill="#e7e7e7" stroke="#374151"/><text x="1420.5" y="275.5" text-anchor="middle" fill="#111827" font-family="Segoe UI, sans-serif" font-size="11">6</text><text x="1420.5" y="294.0" text-anchor="middle" fill="#374151" font-family="Consolas, monospace" font-size="9">0</text><rect x="1277.0" y="303.0" width="55.0" height="55.0" rx="7" fill="#e7e7e7" stroke="#374151"/><text x="1304.5" y="333.5" text-anchor="middle" fill="#111827" font-family="Segoe UI, sans-serif" font-size="11">1</text><text x="1304.5" y="352.0" text-anchor="middle" fill="#374151" font-family="Consolas, monospace" font-size="9">0</text><rect x="1335.0" y="303.0" width="55.0" height="55.0" rx="7" fill="#e7e7e7" stroke="#374151"/><text x="1362.5" y="333.5" text-anchor="middle" fill="#111827" font-family="Segoe UI, sans-serif" font-size="11">2</text><text x="1362.5" y="352.0" text-anchor="middle" fill="#374151" font-family="Consolas, monospace" font-size="9">0</text><rect x="1393.0" y="303.0" width="55.0" height="55.0" rx="7" fill="#e7e7e7" stroke="#374151"/><text x="1420.5" y="333.5" text-anchor="middle" fill="#111827" font-family="Segoe UI, sans-serif" font-size="11">3</text><text x="1420.5" y="352.0" text-anchor="middle" fill="#374151" font-family="Consolas, monospace" font-size="9">0</text><rect x="1451.0" y="303.0" width="55.0" height="113.0" rx="7" fill="#ff2828" stroke="#374151"/><text x="1478.5" y="362.5" text-anchor="middle" fill="#111827" font-family="Segoe UI, sans-serif" font-size="11">Enter</text><text x="1478.5" y="410.0" text-anchor="middle" fill="#374151" font-family="Consolas, monospace" font-size="9">6</text><rect x="1277.0" y="361.0" width="113.0" height="55.0" rx="7" fill="#e7e7e7" stroke="#374151"/><text x="1333.5" y="391.5" text-anchor="middle" fill="#111827" font-family="Segoe UI, sans-serif" font-size="11">0</text><text x="1333.5" y="410.0" text-anchor="middle" fill="#374151" font-family="Consolas, monospace" font-size="9">0</text><rect x="1393.0" y="361.0" width="55.0" height="55.0" rx="7" fill="#e7e7e7" stroke="#374151"/><text x="1420.5" y="391.5" text-anchor="middle" fill="#111827" font-family="Segoe UI, sans-serif" font-size="11">.</text><text x="1420.5" y="410.0" text-anchor="middle" fill="#374151" font-family="Consolas, monospace" font-size="9">0</text><text x="30" y="523" fill="#d1d5db" font-family="Segoe UI, sans-serif" font-size="11">Records: 3 × 10 min · Total keys: 52 · Privacy: sequence/characters/timestamps not stored</text></svg>